HIERARCHY
ROOT SpineBase
{
  OFFSET 0.000000 0.000000 0.000000
  CHANNELS 6 Xposition Yposition Zposition Zrotation Xrotation Yrotation
  JOINT SpineMid
  {
    OFFSET -0.000000 31.116178 0.000000
    CHANNELS 3 Zrotation Xrotation Yrotation
    JOINT SpineShoulder
    {
      OFFSET -0.010321 23.162544 -0.575879
      CHANNELS 3 Zrotation Xrotation Yrotation
      JOINT Neck
      {
        OFFSET 0.013473 7.684030 -0.474348
        CHANNELS 3 Zrotation Xrotation Yrotation
        JOINT Head
        {
          OFFSET -4.545483 13.325189 1.258892
          CHANNELS 3 Zrotation Xrotation Yrotation
          End Site
          {
            OFFSET 0 0 0
          }
        }
      }
      JOINT ShoulderLeft
      {
        OFFSET -16.305310 -4.413100 8.736519
        CHANNELS 3 Zrotation Xrotation Yrotation
        JOINT ElbowLeft
        {
          OFFSET -2.807031 -28.288249 1.539164
          CHANNELS 3 Zrotation Xrotation Yrotation
          JOINT WristLeft
          {
            OFFSET 0.477444 -21.055397 -4.700840
            CHANNELS 3 Zrotation Xrotation Yrotation
            JOINT HandLeft
            {
              OFFSET 0.556601 -7.915799 -0.056932
              CHANNELS 3 Zrotation Xrotation Yrotation
              JOINT HandTipLeft
              {
                OFFSET 0.123778 -7.586771 -1.082668
                CHANNELS 3 Zrotation Xrotation Yrotation
                End Site
                {
                  OFFSET 0 0 0
                }
              }
              JOINT ThumbLeft
              {
                OFFSET 3.020248 -0.847952 -3.714150
                CHANNELS 3 Zrotation Xrotation Yrotation
                End Site
                {
                  OFFSET 0 0 0
                }
              }
            }
          }
        }
      }
      JOINT ShoulderRight
      {
        OFFSET 13.522717 -2.272552 -7.295765
        CHANNELS 3 Zrotation Xrotation Yrotation
        JOINT ElbowRight
        {
          OFFSET 8.752324 -27.278270 -2.405258
          CHANNELS 3 Zrotation Xrotation Yrotation
          JOINT WristRight
          {
            OFFSET 1.353249 -20.175112 -6.872378
            CHANNELS 3 Zrotation Xrotation Yrotation
            JOINT HandRight
            {
              OFFSET -0.444629 -6.879318 -0.251927
              CHANNELS 3 Zrotation Xrotation Yrotation
              JOINT HandTipRight
              {
                OFFSET 0.061258 -8.049871 -0.565645
                CHANNELS 3 Zrotation Xrotation Yrotation
                End Site
                {
                  OFFSET 0 0 0
                }
              }
              JOINT ThumbRight
              {
                OFFSET -3.094096 1.221604 -0.471184
                CHANNELS 3 Zrotation Xrotation Yrotation
                End Site
                {
                  OFFSET 0 0 0
                }
              }
            }
          }
        }
      }
    }
  }
  JOINT HipLeft
  {
    OFFSET -5.991202 0.012819 -0.385493
    CHANNELS 3 Zrotation Xrotation Yrotation
    JOINT KneeLeft
    {
      OFFSET -1.296596 -37.634271 1.062913
      CHANNELS 3 Zrotation Xrotation Yrotation
      JOINT AnkleLeft
      {
        OFFSET 7.494979 -36.636786 9.154939
        CHANNELS 3 Zrotation Xrotation Yrotation
        JOINT FootLeft
        {
          OFFSET -3.808030 -4.339549 -11.016957
          CHANNELS 3 Zrotation Xrotation Yrotation
          End Site
          {
            OFFSET 0 0 0
          }
        }
      }
    }
  }
  JOINT HipRight
  {
    OFFSET 6.370196 1.768029 -5.912533
    CHANNELS 3 Zrotation Xrotation Yrotation
    JOINT KneeRight
    {
      OFFSET 7.544378 -33.330725 -2.582352
      CHANNELS 3 Zrotation Xrotation Yrotation
      JOINT AnkleRight
      {
        OFFSET 3.099901 -37.748455 11.223879
        CHANNELS 3 Zrotation Xrotation Yrotation
        JOINT FootRight
        {
          OFFSET -3.560252 -5.545175 -8.552402
          CHANNELS 3 Zrotation Xrotation Yrotation
          End Site
          {
            OFFSET 0 0 0
          }
        }
      }
    }
  }
}
MOTION
Frames: 13
Frame Time: 0.033333
-21.266350 82.233043 333.337798 0.000000 0.000000 24.090417 -0.000000 0.000000 -24.090417 -0.000000 0.000000 0.000000 -0.000000 0.000000 0.000000 0.000000 0.000000 0.000000 -0.000000 0.000000 0.000000 -0.000000 0.000000 0.000000 -0.000000 0.000000 0.000000 -0.000000 0.000000 0.000000 0.000000 0.000000 0.000000 0.000000 0.000000 0.000000 -0.000000 0.000000 0.000000 -0.000000 0.000000 0.000000 -0.000000 0.000000 0.000000 -0.000000 0.000000 0.000000 0.000000 0.000000 0.000000 0.000000 0.000000 0.000000 -0.000000 0.000000 -24.090417 -0.000000 0.000000 0.000000 -0.000000 0.000000 0.000000 0.000000 0.000000 0.000000 -0.000000 0.000000 -24.090417 -0.000000 0.000000 0.000000 -0.000000 0.000000 0.000000 0.000000 0.000000 0.000000
-21.238309 82.228426 333.355382 0.057627 0.026737 24.181847 -0.063523 -0.000785 -24.181861 -0.000000 0.000000 0.000000 -0.000000 0.000000 0.000000 0.000000 0.000000 0.000000 -0.000000 0.000000 0.000000 -0.000000 0.000000 0.000000 0.768912 0.437375 0.022278 -0.769104 -0.437037 -0.028146 0.000000 0.000000 0.000000 0.000000 0.000000 0.000000 -0.000000 0.000000 0.000000 -0.000000 0.000000 0.000000 1.324053 -0.199870 -0.033290 -2.481181 0.249809 0.124127 0.000000 0.000000 0.000000 0.000000 0.000000 0.000000 -0.063523 -0.000785 -24.181861 -0.000000 0.000000 0.000000 -1.347570 4.264129 -0.246304 0.000000 0.000000 0.000000 -0.063523 -0.000785 -24.181861 -0.000000 0.000000 0.000000 2.263933 -9.125980 2.961837 0.000000 0.000000 0.000000
-21.210289 82.225589 333.361152 0.113912 0.057608 24.264317 -0.127523 -0.005707 -24.264381 -0.000000 0.000000 0.000000 -0.000000 0.000000 0.000000 0.000000 0.000000 0.000000 -0.000000 0.000000 0.000000 -0.000000 0.000000 0.000000 1.416083 0.975320 0.046299 -0.449748 -0.007980 -0.184054 0.000000 0.000000 0.000000 0.000000 0.000000 0.000000 -0.000000 0.000000 0.000000 -0.000000 0.000000 0.000000 2.331050 -0.185116 -0.069742 -4.425714 0.241511 0.232627 0.000000 0.000000 0.000000 0.000000 0.000000 0.000000 -0.127523 -0.005707 -24.264381 -0.000000 0.000000 0.000000 -2.103964 6.678005 -0.345241 0.000000 0.000000 0.000000 -0.127523 -0.005707 -24.264381 -0.000000 0.000000 0.000000 4.957840 -17.553329 6.088406 0.000000 0.000000 0.000000
-21.182291 82.224531 333.355109 0.168853 0.092609 24.337836 -0.192013 -0.014791 -24.337997 -0.000000 0.000000 0.000000 -0.000000 0.000000 0.000000 0.000000 0.000000 0.000000 -0.000000 0.000000 0.000000 -0.000000 0.000000 0.000000 1.939276 1.616115 0.072248 -0.669478 -0.399838 -0.265730 0.000000 0.000000 0.000000 0.000000 0.000000 0.000000 -0.000000 0.000000 0.000000 -0.000000 0.000000 0.000000 3.027108 0.040310 -0.114746 -5.833531 -0.019102 0.308378 0.000000 0.000000 0.000000 0.000000 0.000000 0.000000 -0.192013 -0.014791 -24.337997 -0.000000 0.000000 0.000000 -2.419442 7.693404 -0.382871 0.000000 0.000000 0.000000 -0.192013 -0.014791 -24.337997 0.718748 0.358443 0.240998 6.939153 -24.811361 8.816792 0.000000 0.000000 0.000000
-21.154315 82.225252 333.337251 0.222449 0.131736 24.402407 -0.257003 -0.028063 -24.402726 -0.000000 0.000000 0.000000 -0.000000 0.000000 0.000000 0.000000 0.000000 0.000000 -0.000000 0.000000 0.000000 -0.000000 0.000000 0.000000 2.336055 2.362194 0.100989 -0.878579 -1.047548 -0.340315 0.000000 0.000000 0.000000 0.000000 0.000000 0.000000 -0.000000 0.000000 0.000000 -0.000000 0.000000 0.000000 3.418715 0.472623 -0.170188 -6.707114 -0.526196 0.343752 0.000000 0.000000 0.000000 0.000000 0.000000 0.000000 -0.257003 -0.028063 -24.402726 -0.000000 0.000000 0.000000 -2.350449 7.489046 -0.387861 0.000000 0.000000 0.000000 -0.257003 -0.028063 -24.402726 0.812628 0.391870 0.271144 9.265623 -29.741378 11.126549 0.000000 0.000000 0.000000
-21.126362 82.227753 333.307580 0.274701 0.174985 24.458033 -0.322499 -0.045548 -24.458580 -0.000000 0.000000 0.000000 -0.000000 0.000000 0.000000 0.000000 0.000000 0.000000 -0.000000 0.000000 0.000000 -0.000000 0.000000 0.000000 2.603698 3.216098 0.134122 -1.073269 -1.951676 -0.409198 0.000000 0.000000 0.000000 0.000000 0.000000 0.000000 -0.000000 0.000000 0.000000 -0.000000 0.000000 0.000000 3.512134 1.108420 -0.234666 -7.050679 -1.274732 0.340226 0.000000 0.000000 0.000000 0.000000 0.000000 0.000000 -0.322499 -0.045548 -24.458580 -0.000000 0.000000 0.000000 -1.886024 6.029815 -0.355586 0.000000 0.000000 0.000000 -0.322499 -0.045548 -24.458580 0.835500 0.382924 0.277189 10.925648 -32.563707 12.445124 0.000000 0.000000 0.000000
-21.093180 82.233628 333.262971 0.337427 0.231269 24.539329 -0.403000 -0.070237 -24.540257 -0.000000 0.000000 0.000000 -0.000000 0.000000 0.000000 0.000000 0.000000 0.000000 -0.000000 0.000000 0.000000 -0.000000 0.000000 0.000000 2.561101 5.128179 0.227266 -1.318341 -3.857086 -0.517108 0.000000 0.000000 0.000000 0.000000 0.000000 0.000000 -0.000000 0.000000 0.000000 -0.000000 0.000000 0.000000 2.855727 2.513743 -0.330031 -5.713915 -2.850990 0.269153 0.000000 0.000000 0.000000 0.000000 0.000000 0.000000 -0.403000 -0.070237 -24.540257 -0.000000 0.000000 0.000000 -0.835110 3.105602 -0.542297 0.000000 0.000000 0.000000 -0.403000 -0.070237 -24.540257 -0.000000 0.000000 0.000000 8.945826 -26.324840 9.275966 0.000000 0.000000 0.000000
-21.061687 82.241318 333.202958 0.393775 0.287684 24.603158 -0.477797 -0.097619 -24.604554 -0.000000 0.000000 0.000000 -0.000000 0.000000 0.000000 0.000000 0.000000 0.000000 -0.000000 0.000000 0.000000 -0.000000 0.000000 0.000000 2.594477 5.639944 0.249924 -2.631685 -5.622722 -0.507000 0.000000 0.000000 0.000000 0.000000 0.000000 0.000000 -0.000000 0.000000 0.000000 -0.000000 0.000000 0.000000 2.325465 3.620249 -0.392798 -4.698716 -4.401621 0.240716 0.000000 0.000000 0.000000 0.000000 0.000000 0.000000 -0.477797 -0.097619 -24.604554 -0.000000 0.000000 0.000000 0.772746 -2.136182 -0.076751 0.000000 0.000000 0.000000 -0.477797 -0.097619 -24.604554 -0.000000 0.000000 0.000000 8.741699 -25.594111 8.628585 0.000000 0.000000 0.000000
-21.040136 82.249874 333.142959 0.437932 0.349007 24.623228 -0.543524 -0.134798 -24.625201 -0.000000 0.000000 0.000000 -0.000000 0.000000 0.000000 0.000000 0.000000 0.000000 -0.000000 0.000000 0.000000 -0.000000 0.000000 0.000000 2.528850 6.366246 0.288689 -3.434232 -7.093602 -0.564432 0.000000 0.000000 0.000000 0.000000 0.000000 0.000000 -0.000000 0.000000 0.000000 -0.000000 0.000000 0.000000 1.677364 4.998287 -0.457604 -4.050376 -7.432353 0.202176 0.000000 0.000000 0.000000 0.000000 0.000000 0.000000 -0.543524 -0.134798 -24.625201 -0.000000 0.000000 0.000000 3.144002 -9.760423 1.146551 0.000000 0.000000 0.000000 -0.543524 -0.134798 -24.625201 -0.000000 0.000000 0.000000 9.079479 -25.383172 7.609532 0.000000 0.000000 0.000000
-21.021048 82.252688 333.079149 0.466481 0.406023 24.555215 -0.593025 -0.175434 -24.557776 -0.000000 0.000000 0.000000 -0.000000 0.000000 0.000000 0.000000 0.000000 0.000000 -0.000000 0.000000 0.000000 -0.000000 0.000000 0.000000 2.741410 6.891181 0.299694 -2.797425 -6.868724 -0.632699 0.000000 0.000000 0.000000 0.000000 0.000000 0.000000 -0.000000 0.000000 0.000000 -0.000000 0.000000 0.000000 1.277419 6.021373 -0.502898 -2.770484 -7.406592 0.288320 0.000000 0.000000 0.000000 0.000000 0.000000 0.000000 -0.593025 -0.175434 -24.557776 -0.000000 0.000000 0.000000 6.633595 -19.672259 3.390127 0.000000 0.000000 0.000000 -0.593025 -0.175434 -24.557776 -0.000000 0.000000 0.000000 9.629262 -25.019169 5.922446 0.000000 0.000000 0.000000
-21.015908 82.247579 333.022793 0.453064 0.424485 24.488825 -0.588265 -0.198484 -24.491522 -0.000000 0.000000 0.000000 -0.000000 0.000000 0.000000 0.000000 0.000000 0.000000 -0.000000 0.000000 0.000000 -0.000000 0.000000 0.000000 2.279233 9.225296 0.448884 -1.283618 -10.830937 -0.817469 0.000000 0.000000 0.000000 0.000000 0.000000 0.000000 -0.000000 0.000000 0.000000 -0.000000 0.000000 0.000000 0.843962 6.758638 -0.517204 -2.385447 -9.509864 0.286130 0.000000 0.000000 0.000000 0.000000 0.000000 0.000000 -0.588265 -0.198484 -24.491522 -0.000000 0.000000 0.000000 13.992444 -35.299496 9.064158 0.000000 0.000000 0.000000 -0.588265 -0.198484 -24.491522 -0.000000 0.000000 0.000000 10.186503 -25.068459 4.790140 0.000000 0.000000 0.000000
-20.989536 82.252935 332.929262 0.441531 0.449250 24.394152 -0.587662 -0.226772 -24.397046 -0.000000 0.000000 0.000000 -0.000000 0.000000 0.000000 0.000000 0.000000 0.000000 -0.000000 0.000000 0.000000 -0.000000 0.000000 0.000000 1.997631 9.659681 0.496742 0.023714 -10.430032 -0.785605 0.000000 0.000000 0.000000 0.000000 0.000000 0.000000 0.767676 0.437919 0.069711 -0.768230 -0.436945 -0.075574 0.555200 7.178795 -0.518720 -2.878858 -8.862312 0.274018 0.000000 0.000000 0.000000 0.000000 0.000000 0.000000 -0.587662 -0.226772 -24.397046 -0.000000 0.000000 0.000000 19.431115 -43.239803 13.866014 0.000000 0.000000 0.000000 -0.587662 -0.226772 -24.397046 -0.000000 0.000000 0.000000 10.806520 -25.910188 4.619861 0.000000 0.000000 0.000000
-20.936297 82.263799 332.812533 0.453030 0.480317 24.310859 -0.610603 -0.251202 -24.314096 -0.000000 0.000000 0.000000 -0.000000 0.000000 0.000000 0.000000 0.000000 0.000000 -0.000000 0.000000 0.000000 0.148424 1.888740 0.007222 -0.322441 12.756386 1.040266 3.513132 -14.121045 -0.639738 0.000000 0.000000 0.000000 0.000000 0.000000 0.000000 0.799873 0.497954 0.085541 -0.800645 -0.496711 -0.092488 0.166330 6.746204 -0.451490 -2.887979 -8.409426 0.250467 0.000000 0.000000 0.000000 0.000000 0.000000 0.000000 -0.610603 -0.251202 -24.314096 -0.000000 0.000000 0.000000 19.347084 -43.104117 14.104377 0.000000 0.000000 0.000000 -0.610603 -0.251202 -24.314096 -0.000000 0.000000 0.000000 11.144222 -26.865156 5.267819 0.000000 0.000000 0.000000
